<svg version="1" xmlns="http://www.w3.org/2000/svg" width="682.667" height="682.667" viewBox="0 0 512.000000 512.000000"><path d="M248.3 12C243 13.1 254 6.9 146 69.2c-51.4 29.7-95 55.4-96.8 57.1-1.8 1.8-4.8 6.1-6.5 9.7l-3.2 6.5v227l3.2 6.5c1.7 3.6 4.7 7.9 6.5 9.7 3.1 3 184.4 108.3 193.8 112.6 6.3 2.9 18.7 2.9 25 0 9.4-4.3 190.7-109.6 193.8-112.6 1.8-1.8 4.8-6.1 6.5-9.7l3.2-6.5v-227l-3.2-6.5c-1.7-3.6-4.7-7.9-6.5-9.7-3-2.9-187.3-109.9-194.3-112.9-4.2-1.7-14.1-2.5-19.2-1.4zM242 149.5v13.4l-38.2.3-38.3.3-6.7 3.2c-8.5 4-15.1 10.6-19.1 19.1-3 6.2-3.2 7.5-3.2 17.2 0 9.5.3 11.1 2.8 16.2 5.9 12 16.8 20.4 29.6 22.8 2.9.5 20.6 1 39.2 1H242v26h-37.2c-41.8 0-46.1-.5-58.2-6.5-14-6.9-24.4-17.5-31.2-31.8-8.7-18.3-8.4-38.6.8-57.7 3.3-6.8 5.7-10.1 12.7-17.1 7-7 10.3-9.4 17.1-12.7 13.7-6.6 17.5-7 59.3-7.1l36.7-.1v13.5zm106.8-11.9c4.2.8 11.5 3.4 16.2 5.6 6.8 3.3 10.1 5.7 17.1 12.7 7 7 9.4 10.3 12.7 17.1 9.2 19.1 9.4 39.3.7 57.8-3.9 8.3-10.7 17.5-16.2 22.1l-3.8 3.1 3.8 3.1c5.5 4.6 12.3 13.8 16.2 22.1 8.7 18.5 8.5 38.7-.7 57.8-3.3 6.8-5.7 10.1-12.7 17.1-7 7-10.3 9.4-17.1 12.7-13.8 6.6-18.7 7.2-60 7.2h-36v-26.9l38.3-.3 38.2-.3 6.7-3.2c8.5-4 15.1-10.6 19.1-19.1 3-6.2 3.2-7.5 3.2-17.2 0-9.5-.3-11.1-2.8-16.2-5.9-12-16.8-20.4-29.6-22.8-2.9-.5-20.6-1-39.2-1H269v-26h33.9c18.6 0 36.3-.5 39.2-1 12.8-2.4 23.7-10.8 29.6-22.8 2.5-5.1 2.8-6.7 2.8-16.2 0-9.7-.2-11-3.2-17.2-4-8.5-10.6-15.1-19.1-19.1l-6.7-3.2-38.2-.3-38.3-.3V136h36c28.8 0 37.6.3 43.8 1.6zM136.1 314.7c.9 7.3 5.9 17.4 11.4 22.8 2.5 2.6 7.6 6.1 11.3 7.8l6.7 3.2 38.3.3 38.2.3V376h-36c-41.3 0-46.2-.6-60-7.2-6.8-3.3-10.1-5.7-17.1-12.7-7-7-9.4-10.3-12.7-17.1-3.9-8.2-7.2-20.5-7.2-27v-3.1l13.3.3 13.2.3.6 5.2z"/></svg>